<svg width="24" height="21" viewBox="0 0 24 21" fill="none" xmlns="http://www.w3.org/2000/svg">
<path d="M8.74023 0.0410156C10.9202 -0.013751 13.0788 -0.0137492 15.2588 0.0410156L15.3242 0.0429688C17.0261 0.0857041 18.3956 0.120425 19.4932 0.311523C20.6424 0.511664 21.5772 0.895442 22.3662 1.6875C23.1518 2.47618 23.5332 3.39689 23.7295 4.52734C23.9164 5.60385 23.9452 6.94043 23.9805 8.5957L23.9814 8.66113C24.0052 9.77325 24.0052 10.8791 23.9814 11.9912L23.9805 12.0566C23.9452 13.7119 23.9164 15.0485 23.7295 16.125C23.5331 17.2554 23.1518 18.1762 22.3662 18.9648C21.5772 19.7569 20.6424 20.1407 19.4932 20.3408C18.3956 20.5319 17.0261 20.5657 15.3242 20.6084L15.2588 20.6104C13.0788 20.6651 10.9202 20.6651 8.74023 20.6104L8.6748 20.6084C6.97293 20.5657 5.6034 20.5319 4.50586 20.3408C3.35681 20.1407 2.42278 19.7567 1.63379 18.9648C0.848136 18.1762 0.465885 17.2554 0.269531 16.125C0.0825907 15.0485 0.0538257 13.7119 0.0185547 12.0566L0.0175781 11.9912C-0.00613885 10.8791 -0.00613445 9.77325 0.0175781 8.66113L0.0185547 8.5957C0.0538248 6.94045 0.0825913 5.60385 0.269531 4.52734C0.465863 3.39677 0.848039 2.47624 1.63379 1.6875C2.42282 0.895512 3.3567 0.511653 4.50586 0.311523C5.60342 0.120384 6.97289 0.0857009 8.6748 0.0429688L8.74023 0.0410156ZM18.3018 5.99316C18.0665 5.59528 17.5532 5.46325 17.1553 5.69824L13.8711 7.64062C12.9288 8.19772 12.4274 8.37294 12 8.37305C11.5725 8.37305 11.0711 8.19764 10.1289 7.64062L6.84473 5.69824C6.44671 5.46292 5.93259 5.59515 5.69727 5.99316C5.46208 6.39113 5.59428 6.90434 5.99219 7.13965L9.27637 9.08203C10.2484 9.65669 11.0877 10.0469 12 10.0469C12.9121 10.0468 13.7509 9.65656 14.7227 9.08203L18.0068 7.13965C18.4048 6.90434 18.537 6.39117 18.3018 5.99316Z" fill="#141B34"/>
</svg>
