<svg width="40" height="40" viewBox="0 0 40 40" fill="none" xmlns="http://www.w3.org/2000/svg">
<path d="M32.2644 20L33.8119 17.3256C33.9978 17.0038 34.0484 16.6213 33.9525 16.2623C33.8565 15.9032 33.6219 15.597 33.3002 15.4109L30.623 13.8634V10.7797C30.623 10.408 30.4753 10.0514 30.2125 9.78856C29.9496 9.5257 29.5931 9.37802 29.2213 9.37802H26.139L24.5929 6.70221C24.4072 6.38028 24.1011 6.14533 23.7421 6.04902C23.5643 6.00137 23.3788 5.98922 23.1962 6.01327C23.0137 6.03732 22.8377 6.0971 22.6782 6.18919L20.001 7.73665L17.3238 6.18779C17.0018 6.00192 16.6192 5.95155 16.2602 6.04776C15.9011 6.14397 15.5949 6.37887 15.4091 6.7008L13.8616 9.37802H10.7793C10.4075 9.37802 10.051 9.5257 9.78814 9.78856C9.52527 10.0514 9.37759 10.408 9.37759 10.7797V13.862L6.70036 15.4095C6.54089 15.5016 6.40114 15.6243 6.28911 15.7705C6.17708 15.9167 6.09496 16.0835 6.04744 16.2615C5.99993 16.4394 5.98795 16.625 6.0122 16.8076C6.03644 16.9902 6.09643 17.1662 6.18874 17.3256L7.73621 20L6.18874 22.6744C6.0037 22.9965 5.9535 23.3786 6.04908 23.7376C6.14465 24.0965 6.37826 24.4031 6.69896 24.5905L9.37619 26.138V29.2203C9.37619 29.592 9.52387 29.9485 9.78673 30.2114C10.0496 30.4743 10.4061 30.6219 10.7779 30.6219H13.8616L15.4091 33.2992C15.5332 33.5113 15.7103 33.6875 15.9232 33.8103C16.136 33.9332 16.3772 33.9986 16.6229 34C16.8668 34 17.1093 33.9355 17.3252 33.8108L19.9996 32.2633L22.6768 33.8108C22.9986 33.9968 23.3811 34.0473 23.7401 33.9514C24.0992 33.8555 24.4054 33.6208 24.5915 33.2992L26.1376 30.6219H29.2199C29.5917 30.6219 29.9482 30.4743 30.2111 30.2114C30.4739 29.9485 30.6216 29.592 30.6216 29.2203V26.138L33.2988 24.5905C33.4583 24.4983 33.5981 24.3757 33.7101 24.2295C33.8221 24.0833 33.9042 23.9164 33.9518 23.7385C33.9993 23.5605 34.0113 23.375 33.987 23.1924C33.9628 23.0098 33.9028 22.8338 33.8105 22.6744L32.2644 20ZM16.4954 12.9775C17.0532 12.9777 17.5881 13.1995 17.9824 13.5941C18.3767 13.9886 18.5981 14.5237 18.5979 15.0815C18.5977 15.6393 18.376 16.1742 17.9814 16.5685C17.5868 16.9628 17.0518 17.1842 16.494 17.184C15.9362 17.1838 15.4013 16.962 15.007 16.5675C14.6127 16.1729 14.3913 15.6379 14.3914 15.0801C14.3916 14.5223 14.6134 13.9874 15.008 13.5931C15.4025 13.1988 15.9376 12.9774 16.4954 12.9775ZM16.9159 26.4337L14.6732 24.7531L23.0833 13.5396L25.326 15.2202L16.9159 26.4337ZM23.5038 26.9944C23.2276 26.9943 22.9541 26.9398 22.699 26.834C22.4439 26.7282 22.2121 26.5732 22.0168 26.3779C21.8216 26.1825 21.6667 25.9506 21.5611 25.6954C21.4555 25.4402 21.4012 25.1667 21.4013 24.8905C21.4014 24.6143 21.4559 24.3408 21.5617 24.0856C21.6674 23.8305 21.8224 23.5987 22.0178 23.4035C22.2132 23.2082 22.4451 23.0534 22.7003 22.9478C22.9555 22.8421 23.229 22.7878 23.5052 22.7879C24.063 22.7881 24.5979 23.0099 24.9922 23.4044C25.3865 23.799 25.608 24.334 25.6078 24.8919C25.6076 25.4497 25.3858 25.9846 24.9912 26.3789C24.5967 26.7732 24.0616 26.9946 23.5038 26.9944Z" fill="black"/>
</svg>
