<svg width="40" height="40" viewBox="0 0 40 40" fill="none" xmlns="http://www.w3.org/2000/svg">
<path d="M6 10.047C6 9.76931 6.10926 9.503 6.30375 9.30666C6.49823 9.11031 6.76201 9 7.03705 9H29.8521C30.1272 9 30.391 9.11031 30.5855 9.30666C30.7799 9.503 30.8892 9.76931 30.8892 10.047C30.8892 10.3247 30.7799 10.591 30.5855 10.7873C30.391 10.9837 30.1272 11.094 29.8521 11.094H7.03705C6.76201 11.094 6.49823 10.9837 6.30375 10.7873C6.10926 10.591 6 10.3247 6 10.047ZM7.03705 19.4699H22.5928C22.8678 19.4699 23.1316 19.3595 23.3261 19.1632C23.5206 18.9669 23.6298 18.7005 23.6298 18.4229C23.6298 18.1452 23.5206 17.8789 23.3261 17.6825C23.1316 17.4862 22.8678 17.3759 22.5928 17.3759H7.03705C6.76201 17.3759 6.49823 17.4862 6.30375 17.6825C6.10926 17.8789 6 18.1452 6 18.4229C6 18.7005 6.10926 18.9669 6.30375 19.1632C6.49823 19.3595 6.76201 19.4699 7.03705 19.4699ZM16.3705 25.7518H7.03705C6.76201 25.7518 6.49823 25.8621 6.30375 26.0584C6.10926 26.2548 6 26.5211 6 26.7987C6 27.0764 6.10926 27.3427 6.30375 27.5391C6.49823 27.7354 6.76201 27.8457 7.03705 27.8457H16.3705C16.6455 27.8457 16.9093 27.7354 17.1038 27.5391C17.2983 27.3427 17.4075 27.0764 17.4075 26.7987C17.4075 26.5211 17.2983 26.2548 17.1038 26.0584C16.9093 25.8621 16.6455 25.7518 16.3705 25.7518ZM33.9563 18.2004C33.9171 18.3326 33.8525 18.4557 33.766 18.5626C33.6796 18.6695 33.5731 18.7581 33.4526 18.8233C33.3321 18.8885 33.2001 18.929 33.0641 18.9424C32.928 18.9559 32.7907 18.9421 32.66 18.9019L28.8151 17.7358V26.7987C28.8166 27.7225 28.5159 28.621 27.9598 29.3546C27.4037 30.0883 26.6233 30.616 25.7397 30.856C24.8561 31.096 23.9187 31.0347 23.0731 30.6818C22.2275 30.3288 21.5209 29.7039 21.0631 28.9041C20.6053 28.1042 20.4219 27.1741 20.5413 26.2582C20.6607 25.3423 21.0762 24.4918 21.7234 23.8388C22.3706 23.1857 23.2133 22.7666 24.1205 22.6466C25.0278 22.5266 25.949 22.7123 26.741 23.1749V16.3289C26.741 16.1657 26.7789 16.0048 26.8515 15.8589C26.9241 15.7131 27.0295 15.5865 27.1592 15.4891C27.2889 15.3917 27.4394 15.3262 27.5986 15.298C27.7578 15.2698 27.9214 15.2795 28.0762 15.3264L33.2614 16.8969C33.5248 16.9768 33.7459 17.159 33.8762 17.4034C34.0065 17.6478 34.0353 17.9345 33.9563 18.2004ZM26.741 26.7987C26.741 26.3846 26.6194 25.9798 26.3914 25.6354C26.1635 25.291 25.8396 25.0227 25.4606 24.8642C25.0816 24.7057 24.6646 24.6642 24.2623 24.745C23.8599 24.8258 23.4904 25.0252 23.2003 25.3181C22.9102 25.6109 22.7127 25.984 22.6327 26.3902C22.5526 26.7964 22.5937 27.2175 22.7507 27.6001C22.9077 27.9827 23.1735 28.3097 23.5146 28.5398C23.8557 28.7699 24.2567 28.8927 24.6669 28.8927C25.217 28.8927 25.7445 28.6721 26.1335 28.2794C26.5225 27.8867 26.741 27.3541 26.741 26.7987Z" fill="black"/>
</svg>
