<svg width="40" height="40" viewBox="0 0 40 40" fill="none" xmlns="http://www.w3.org/2000/svg">
<path d="M18.6 22.8003V34H13C11.8861 34 10.8178 33.5575 10.0302 32.7699C9.2425 31.9823 8.8 30.914 8.8 29.8001V24.2003C8.8 23.829 8.9475 23.4729 9.21005 23.2104C9.4726 22.9478 9.8287 22.8003 10.2 22.8003H18.6ZM29.8 22.8003C30.1713 22.8003 30.5274 22.9478 30.7899 23.2104C31.0525 23.4729 31.2 23.829 31.2 24.2003V29.8001C31.2 30.914 30.7575 31.9823 29.9698 32.7699C29.1822 33.5575 28.1139 34 27 34H21.4V22.8003H29.8ZM26.3 6.00082C27.1267 6.00065 27.94 6.20965 28.6643 6.60836C29.3885 7.00707 30 7.58253 30.442 8.28117C30.884 8.97981 31.142 9.77891 31.192 10.6041C31.2421 11.4293 31.0825 12.2537 30.7282 13.0006H31.2C31.9426 13.0006 32.6548 13.2956 33.1799 13.8207C33.705 14.3458 34 15.0579 34 15.8005V17.2005C34 17.9431 33.705 18.6552 33.1799 19.1803C32.6548 19.7054 31.9426 20.0004 31.2 20.0004H21.4V13.0006H18.6V20.0004H8.8C8.05739 20.0004 7.3452 19.7054 6.8201 19.1803C6.295 18.6552 6 17.9431 6 17.2005V15.8005C6 15.0579 6.295 14.3458 6.8201 13.8207C7.3452 13.2956 8.05739 13.0006 8.8 13.0006H9.2718C8.96084 12.3443 8.79968 11.627 8.8 10.9007C8.8 8.19456 10.9938 6.00082 13.6762 6.00082C16.1332 5.95882 18.313 7.52958 19.8096 10.1083L20 10.4485C21.4462 7.76897 23.584 6.08902 26.0074 6.00362L26.3 6.00082ZM13.7 8.80074C13.143 8.80074 12.6089 9.02198 12.2151 9.4158C11.8212 9.80961 11.6 10.3437 11.6 10.9007C11.6 11.4576 11.8212 11.9917 12.2151 12.3856C12.6089 12.7794 13.143 13.0006 13.7 13.0006H18.1002C17.0628 10.3337 15.3716 8.77274 13.7 8.80074ZM26.2762 8.80074C24.6242 8.77274 22.9372 10.3351 21.8998 13.0006H26.3C26.857 12.9975 27.3898 12.7732 27.7814 12.3771C28.173 11.9811 28.3913 11.4457 28.3881 10.8888C28.3849 10.3318 28.1607 9.79897 27.7646 9.40738C27.3686 9.0158 26.8332 8.79758 26.2762 8.80074Z" fill="black"/>
</svg>
