<svg width="24" height="20" viewBox="0 0 24 20" fill="none" xmlns="http://www.w3.org/2000/svg">
<path d="M24 2.36755C23.1013 2.77586 22.148 3.04384 21.1719 3.16257C22.1887 2.53771 22.9693 1.54822 23.3369 0.369245C22.3704 0.957341 21.3129 1.37171 20.2103 1.59446C19.312 0.61323 18.0324 0 16.6162 0C13.8968 0 11.6921 2.26065 11.6921 5.04888C11.6921 5.44466 11.7357 5.82996 11.8196 6.19959C7.72744 5.98896 4.09931 3.97893 1.67072 0.924219C1.24697 1.66992 1.00416 2.53732 1.00416 3.4625C1.00416 5.21423 1.8735 6.75956 3.19462 7.66504C2.4127 7.63997 1.64797 7.42341 0.964313 7.03344C0.964063 7.05459 0.963969 7.07578 0.964031 7.09699C0.964031 9.54327 2.66128 11.584 4.91372 12.0478C4.18864 12.25 3.42809 12.2796 2.69016 12.1343C3.31669 14.1402 5.13516 15.5999 7.28972 15.6408C5.60456 16.9949 3.48141 17.8021 1.17459 17.8021C0.777094 17.8021 0.385219 17.7782 0 17.7316C2.17903 19.1641 4.76719 20 7.54781 20C16.6047 20 21.5573 12.3064 21.5573 5.63443C21.5573 5.41544 21.5525 5.1977 21.543 4.98121C22.5069 4.26656 23.3389 3.38151 24 2.36755Z" fill="#010103"/>
</svg>
