<svg width="14" height="29" viewBox="0 0 14 29" fill="none" xmlns="http://www.w3.org/2000/svg">
<path d="M13.7875 18.56C13.7475 15.96 11.8775 12.1 6.8975 12.1C4.0475 12.1 3.6575 10.36 3.6275 9.71C3.6575 8.9 4.0275 7.02 6.8575 7.02C9.7975 7.02 10.1375 9.09 10.1675 9.73C10.1975 10.72 11.0475 11.57 12.0175 11.48C13.0175 11.46 13.8075 10.63 13.7775 9.63C13.7275 7.46 12.2875 4.39 8.6775 3.6L8.7075 1.83C8.7175 0.83 7.9175 0.01 6.9175 0H6.8975C5.9075 0 5.0975 0.8 5.0875 1.79L5.0675 3.59C1.4275 4.36 0.027502 7.47 0.00750205 9.7C0.047502 12.12 1.9175 15.72 6.8975 15.72C9.7075 15.72 10.1075 17.76 10.1675 18.52C10.0875 19.01 9.6275 20.8 6.8975 20.8C4.1275 20.8 3.6875 18.94 3.6175 18.39C3.5275 17.39 2.6675 16.67 1.6475 16.75C0.647501 16.84 -0.082498 17.72 0.00750205 18.71C0.157502 20.42 1.4475 23.46 5.0775 24.23V26.3C5.0775 27.3 5.8875 28.11 6.8875 28.11C7.8875 28.11 8.7075 27.3 8.7075 26.3V24.23C10.0277 23.9792 11.2326 23.3116 12.1452 22.3252C13.0578 21.3388 13.6299 20.0857 13.7775 18.75L13.7875 18.65V18.56Z" fill="black"/>
</svg>
